<?xml version="1.0" encoding="UTF-8"?>
<svg width="795.26" height="494.01" version="1.1" viewBox="0 0 210.41 130.71" xmlns="http://www.w3.org/2000/svg">
<g transform="translate(-.094879 -5.0098)">
<path d="m17.087 135.47 15.702 1e-5" fill="none" stroke="#000" stroke-width=".5"/>
<path d="m157.03 135.19c3.1901-5.4794-2.8538-12.108-8.4927-8.3374-1.1467-8.4447-21.436-6.9642-25.284-7.2275-3.0411-0.20818-5.5031 0.75287-8.8943 3.4719-6.6157 5.3045-11.041 6.8276-15.81 5.4413-1.0676-0.31036-1.4778-0.70303-3.0412-2.9112-1.5986-2.2579-3.8384-4.5022-5.1043-5.1147-1.1587-0.56059-2.6858-0.74043-3.8452-0.45285-0.45206 0.11213-1.4372 0.50549-2.1893 0.87414-1.7873 0.87614-3.0764 1.1904-4.8643 1.1859-1.8902-5e-3 -3.5754-0.38834-7.8692-1.7911-7.122-2.3266-9.5603-2.4667-13.846-0.79567-2.5542 0.99588-3.8889 1.2746-5.6383 1.1776-1.7826-0.0989-3.0682-0.44464-5.7258-1.5399-4.4982-1.8539-5.2714-2.0728-7.3495-2.0806-2.0308-8e-3 -2.8702 0.19204-4.743 1.1285l-1.5408 0.49142v16.759l51.663-0.18509 51.162-0.0941z" fill="#fefefe" fill-rule="evenodd" opacity=".99986" stroke="#000" stroke-linecap="round" stroke-linejoin="round" stroke-width=".323"/>
<path d="m71.514 39.974 53.386 0.09145s21.58-8.0493-1.9532-17.093c3.1945-13.311-18.943-28.756-33.431-5.4319-26.06-6.7787-26.794 11.402-18.002 22.434z" fill="#fff" stroke="#000"/>
<path d="m17.087 126.44v-8.979l-1.3067-0.40291c-2.7846-0.8586-4.9941-2.8029-7.2139-3.1234-0.82751-0.11947-2.2635-0.082-2.94 0.0767-1.9854 0.46577-3.5274 1.6177-4.8221 3.6024-0.2051 0.31442-0.39229 0.57984-0.41599 0.58982-0.0237 0.01-0.0431 3.8994-0.0431 8.6431v8.6249h8.0307l8.711 1e-5z" fill="#fefefe" fill-rule="evenodd" opacity=".99986" stroke="#000" stroke-linecap="round" stroke-linejoin="round" stroke-width=".5"/>
<g transform="matrix(-1.9258 0 0 1.9258 222.59 -43.066)" fill="#162b2b" stroke="#55a6aa" stroke-width=".51926">
<path d="m92.379 61.741 4.2732 9.269h11.929l4.2765-9.269z" stroke-linecap="round" stroke-linejoin="round"/>
<path d="m98.556 71.01v21.696"/>
<path d="m106.71 71.01v21.696"/>
</g>
<path d="m32.788 93.685 4.7829-17.85" fill="none" stroke="#55a6aa" stroke-width=".26458px"/>
<path d="m17.087 93.685-4.7829-17.85" fill="none" stroke="#55a6aa" stroke-width=".26458px"/>
<path d="m24.965 75.835 3e-3 17.85" fill="none" stroke="#55a6aa" stroke-width=".26458px"/>
<path d="m17.602 114.7v-20.517h14.648v41.034h-14.648z" fill="#55a6aa" fill-rule="evenodd" opacity=".99986" stroke="#55a6aa" stroke-width=".5"/>
<g transform="matrix(2.545 0 0 2.545 -128.74 -120.07)" fill="#55a6aa" stroke-width=".26458" aria-label="AVTAR">
<path d="m83.694 81.241q-0.33584-0.889-0.63218-1.7385-0.29633-0.86925-0.61242-1.7582h-6.2033l-1.2446 3.4967h-1.9953q0.79022-2.1731 1.4817-4.0104 0.69145-1.857 1.3434-3.5165 0.67169-1.6595 1.3236-3.1609 0.65193-1.5212 1.3631-3.0029h1.7582q0.7112 1.4817 1.3631 3.0029 0.65194 1.5014 1.3039 3.1609 0.67169 1.6595 1.3631 3.5165 0.69145 1.8373 1.4817 4.0104zm-1.7978-5.0772q-0.63218-1.7187-1.2644-3.3189-0.61242-1.62-1.2841-3.1016-0.69145 1.4817-1.3236 3.1016-0.61242 1.6002-1.2248 3.3189z"/>
<path d="m97.484 67.551q-0.75071 2.1731-1.4422 4.0301-0.67169 1.8373-1.3236 3.4967-0.65194 1.6595-1.3039 3.1807-0.63218 1.5014-1.3039 2.9831h-1.7978q-0.67169-1.4817-1.3236-2.9831-0.63218-1.5212-1.3039-3.1807-0.65193-1.6595-1.3434-3.4967-0.69145-1.857-1.4224-4.0301h2.1138q1.0668 3.1214 2.0941 6.0057 1.0273 2.8843 2.1138 5.413 1.0866-2.509 2.1138-5.3933 1.0273-2.9041 2.0743-6.0255z"/>
<path d="m109.08 67.551v1.6595h-4.3067v12.031h-1.9163v-12.031h-4.3067v-1.6595z"/>
<path d="m118.98 81.241q-0.33584-0.889-0.63218-1.7385-0.29633-0.86925-0.61242-1.7582h-6.2033l-1.2446 3.4967h-1.9953q0.79023-2.1731 1.4817-4.0104 0.69145-1.857 1.3434-3.5165 0.6717-1.6595 1.3236-3.1609 0.65193-1.5212 1.3631-3.0029h1.7582q0.71121 1.4817 1.3631 3.0029 0.65194 1.5014 1.3039 3.1609 0.67169 1.6595 1.3631 3.5165 0.69144 1.8373 1.4817 4.0104zm-1.7978-5.0772q-0.63218-1.7187-1.2644-3.3189-0.61243-1.62-1.2841-3.1016-0.69144 1.4817-1.3236 3.1016-0.61243 1.6002-1.2248 3.3189z"/>
<path d="m129.63 75.512q0.31609 0.39511 0.79022 1.047 0.49389 0.63218 1.0075 1.4224 0.51364 0.77047 1.0075 1.62 0.51365 0.84949 0.86925 1.6397h-2.0941q-0.39512-0.75071-0.86925-1.5212-0.45438-0.77047-0.92851-1.4619-0.47414-0.7112-0.94827-1.3236-0.45438-0.61242-0.82974-1.0668-0.25682 0.01976-0.5334 0.01976-0.25682 0-0.5334 0h-1.7187v5.3538h-1.9163v-13.493q0.80998-0.19756 1.7978-0.25682 1.0075-0.07902 1.8373-0.07902 2.8843 0 4.3857 1.0866 1.5212 1.0866 1.5212 3.2399 0 1.3631-0.73095 2.3312-0.7112 0.96802-2.1138 1.4422zm-2.9041-6.4206q-1.2248 0-1.8768 0.05927v5.1562h1.3631q0.98778 0 1.778-0.09878 0.79023-0.09878 1.3236-0.37536 0.55316-0.27658 0.84949-0.77047 0.29633-0.51364 0.29633-1.3434 0-0.77047-0.29633-1.2841-0.29633-0.51365-0.80998-0.80998-0.49389-0.29633-1.1853-0.41487-0.67169-0.11853-1.4422-0.11853z"/>
</g>
</g>
</svg>
